<svg xmlns="http://www.w3.org/2000/svg" width="120" height="120" viewBox="0 0 120 120">
  <defs>
    <style>
      .stroke{stroke:#16A34A;stroke-width:6;stroke-linecap:round;stroke-linejoin:round;fill:none}
      .fill{fill:#16A34A}
      .soft{fill:#16A34A;opacity:.12}
    </style>
  </defs>

  <circle cx="60" cy="60" r="50" class="soft"></circle>

  <path d="M38 48c3-14 15-24 22-24s19 10 22 24" class="stroke"></path>
  <path d="M28 52h64l-6 44H34l-6-44z" class="stroke"></path>
  <path d="M34 96h52" class="stroke"></path>
  <path d="M40 60h40M38 70h44M36 80h48" class="stroke" opacity=".55"></path>

  <!-- badge star -->
  <circle cx="88" cy="36" r="14" class="fill"></circle>
  <path d="M88 26l3.2 6.5 7.2 1-5.2 5 1.3 7.1-6.5-3.4-6.5 3.4 1.3-7.1-5.2-5 7.2-1L88 26z" fill="#fff"></path>
</svg>